<mxfile host="app.diagrams.net" agent="Mozilla/5.0 (Windows NT 10.0; Win64; x64) AppleWebKit/537.36 (KHTML, like Gecko) Chrome/138.0.0.0 Safari/537.36" version="28.0.6">
  <diagram name="PÃ¡gina-1" id="fSLntLZWWzskeUeGJDDW">
    <mxGraphModel dx="2253" dy="749" grid="1" gridSize="10" guides="1" tooltips="1" connect="1" arrows="1" fold="1" page="1" pageScale="1" pageWidth="827" pageHeight="1169" math="0" shadow="0">
      <root>
        <mxCell id="0" />
        <mxCell id="1" parent="0" />
        <mxCell id="eKjJmJwSCdcL-WDxgkLK-1" value="" style="ellipse;whiteSpace=wrap;html=1;aspect=fixed;" vertex="1" parent="1">
          <mxGeometry x="50" y="120" width="50" height="50" as="geometry" />
        </mxCell>
        <mxCell id="eKjJmJwSCdcL-WDxgkLK-2" value="Actor" style="shape=umlActor;verticalLabelPosition=bottom;verticalAlign=top;html=1;outlineConnect=0;" vertex="1" parent="1">
          <mxGeometry x="-80" y="100" width="30" height="60" as="geometry" />
        </mxCell>
        <mxCell id="eKjJmJwSCdcL-WDxgkLK-10" style="edgeStyle=orthogonalEdgeStyle;rounded=0;orthogonalLoop=1;jettySize=auto;html=1;exitX=0.5;exitY=0.5;exitDx=0;exitDy=0;exitPerimeter=0;entryX=0;entryY=0.5;entryDx=0;entryDy=0;" edge="1" parent="1" source="eKjJmJwSCdcL-WDxgkLK-3" target="eKjJmJwSCdcL-WDxgkLK-4">
          <mxGeometry relative="1" as="geometry" />
        </mxCell>
        <mxCell id="eKjJmJwSCdcL-WDxgkLK-3" value="Actor" style="shape=umlActor;verticalLabelPosition=bottom;verticalAlign=top;html=1;outlineConnect=0;" vertex="1" parent="1">
          <mxGeometry x="130" y="115" width="30" height="60" as="geometry" />
        </mxCell>
        <mxCell id="eKjJmJwSCdcL-WDxgkLK-4" value="" style="rounded=0;whiteSpace=wrap;html=1;" vertex="1" parent="1">
          <mxGeometry x="200" y="115" width="120" height="60" as="geometry" />
        </mxCell>
        <mxCell id="eKjJmJwSCdcL-WDxgkLK-5" value="Actor" style="shape=umlActor;verticalLabelPosition=bottom;verticalAlign=top;html=1;outlineConnect=0;" vertex="1" parent="1">
          <mxGeometry x="-80" y="200" width="30" height="60" as="geometry" />
        </mxCell>
        <mxCell id="eKjJmJwSCdcL-WDxgkLK-6" value="Actor" style="shape=umlActor;verticalLabelPosition=bottom;verticalAlign=top;html=1;outlineConnect=0;" vertex="1" parent="1">
          <mxGeometry x="-80" y="300" width="30" height="60" as="geometry" />
        </mxCell>
        <mxCell id="eKjJmJwSCdcL-WDxgkLK-12" style="edgeStyle=orthogonalEdgeStyle;rounded=0;orthogonalLoop=1;jettySize=auto;html=1;exitX=0.5;exitY=0.5;exitDx=0;exitDy=0;exitPerimeter=0;entryX=0;entryY=0.5;entryDx=0;entryDy=0;" edge="1" parent="1" source="eKjJmJwSCdcL-WDxgkLK-7" target="eKjJmJwSCdcL-WDxgkLK-8">
          <mxGeometry relative="1" as="geometry" />
        </mxCell>
        <mxCell id="eKjJmJwSCdcL-WDxgkLK-7" value="Actor" style="shape=umlActor;verticalLabelPosition=bottom;verticalAlign=top;html=1;outlineConnect=0;" vertex="1" parent="1">
          <mxGeometry x="370" y="115" width="30" height="60" as="geometry" />
        </mxCell>
        <mxCell id="eKjJmJwSCdcL-WDxgkLK-8" value="" style="rounded=0;whiteSpace=wrap;html=1;" vertex="1" parent="1">
          <mxGeometry x="460" y="115" width="120" height="60" as="geometry" />
        </mxCell>
        <mxCell id="eKjJmJwSCdcL-WDxgkLK-9" style="edgeStyle=orthogonalEdgeStyle;rounded=0;orthogonalLoop=1;jettySize=auto;html=1;exitX=1;exitY=0.5;exitDx=0;exitDy=0;entryX=0.5;entryY=0.5;entryDx=0;entryDy=0;entryPerimeter=0;" edge="1" parent="1" source="eKjJmJwSCdcL-WDxgkLK-1" target="eKjJmJwSCdcL-WDxgkLK-3">
          <mxGeometry relative="1" as="geometry" />
        </mxCell>
        <mxCell id="eKjJmJwSCdcL-WDxgkLK-11" style="edgeStyle=orthogonalEdgeStyle;rounded=0;orthogonalLoop=1;jettySize=auto;html=1;exitX=1;exitY=0.5;exitDx=0;exitDy=0;entryX=0.5;entryY=0.5;entryDx=0;entryDy=0;entryPerimeter=0;" edge="1" parent="1" source="eKjJmJwSCdcL-WDxgkLK-4" target="eKjJmJwSCdcL-WDxgkLK-7">
          <mxGeometry relative="1" as="geometry" />
        </mxCell>
      </root>
    </mxGraphModel>
  </diagram>
</mxfile>
